<mxfile host="app.diagrams.net" modified="2023-04-18T01:57:41.127Z" agent="Mozilla/5.0 (Macintosh; Intel Mac OS X 10_15_7) AppleWebKit/537.36 (KHTML, like Gecko) Chrome/111.0.0.0 Safari/537.36" etag="URgnoVzzvgKbeuK9hdv6" version="21.1.8" type="github">
  <diagram id="C5RBs43oDa-KdzZeNtuy" name="Page-1">
    <mxGraphModel dx="984" dy="667" grid="1" gridSize="10" guides="1" tooltips="1" connect="1" arrows="1" fold="1" page="1" pageScale="1" pageWidth="827" pageHeight="1169" math="0" shadow="0">
      <root>
        <mxCell id="WIyWlLk6GJQsqaUBKTNV-0" />
        <mxCell id="WIyWlLk6GJQsqaUBKTNV-1" parent="WIyWlLk6GJQsqaUBKTNV-0" />
        <mxCell id="-9E9C-kP7qHkTaOwC15O-2" style="edgeStyle=orthogonalEdgeStyle;rounded=0;orthogonalLoop=1;jettySize=auto;html=1;exitX=0.5;exitY=1;exitDx=0;exitDy=0;" edge="1" parent="WIyWlLk6GJQsqaUBKTNV-1" source="-9E9C-kP7qHkTaOwC15O-0" target="-9E9C-kP7qHkTaOwC15O-1">
          <mxGeometry relative="1" as="geometry" />
        </mxCell>
        <mxCell id="-9E9C-kP7qHkTaOwC15O-0" value="api/observable" style="rounded=1;whiteSpace=wrap;html=1;" vertex="1" parent="WIyWlLk6GJQsqaUBKTNV-1">
          <mxGeometry x="270" y="70" width="120" height="60" as="geometry" />
        </mxCell>
        <mxCell id="-9E9C-kP7qHkTaOwC15O-4" style="edgeStyle=orthogonalEdgeStyle;rounded=0;orthogonalLoop=1;jettySize=auto;html=1;exitX=0.5;exitY=1;exitDx=0;exitDy=0;entryX=0.5;entryY=0;entryDx=0;entryDy=0;" edge="1" parent="WIyWlLk6GJQsqaUBKTNV-1" source="-9E9C-kP7qHkTaOwC15O-1" target="-9E9C-kP7qHkTaOwC15O-3">
          <mxGeometry relative="1" as="geometry" />
        </mxCell>
        <mxCell id="-9E9C-kP7qHkTaOwC15O-1" value="obserable.object" style="rounded=1;whiteSpace=wrap;html=1;" vertex="1" parent="WIyWlLk6GJQsqaUBKTNV-1">
          <mxGeometry x="270" y="210" width="120" height="60" as="geometry" />
        </mxCell>
        <mxCell id="-9E9C-kP7qHkTaOwC15O-6" style="edgeStyle=orthogonalEdgeStyle;rounded=0;orthogonalLoop=1;jettySize=auto;html=1;exitX=0.5;exitY=1;exitDx=0;exitDy=0;entryX=0.5;entryY=0;entryDx=0;entryDy=0;" edge="1" parent="WIyWlLk6GJQsqaUBKTNV-1" source="-9E9C-kP7qHkTaOwC15O-3" target="-9E9C-kP7qHkTaOwC15O-5">
          <mxGeometry relative="1" as="geometry" />
        </mxCell>
        <mxCell id="-9E9C-kP7qHkTaOwC15O-3" value="extendObservable" style="rounded=1;whiteSpace=wrap;html=1;" vertex="1" parent="WIyWlLk6GJQsqaUBKTNV-1">
          <mxGeometry x="270" y="340" width="120" height="60" as="geometry" />
        </mxCell>
        <mxCell id="-9E9C-kP7qHkTaOwC15O-8" style="edgeStyle=orthogonalEdgeStyle;rounded=0;orthogonalLoop=1;jettySize=auto;html=1;exitX=0.5;exitY=1;exitDx=0;exitDy=0;" edge="1" parent="WIyWlLk6GJQsqaUBKTNV-1" source="-9E9C-kP7qHkTaOwC15O-5" target="-9E9C-kP7qHkTaOwC15O-7">
          <mxGeometry relative="1" as="geometry" />
        </mxCell>
        <mxCell id="-9E9C-kP7qHkTaOwC15O-5" value="adm" style="rounded=1;whiteSpace=wrap;html=1;" vertex="1" parent="WIyWlLk6GJQsqaUBKTNV-1">
          <mxGeometry x="270" y="440" width="120" height="60" as="geometry" />
        </mxCell>
        <mxCell id="-9E9C-kP7qHkTaOwC15O-10" style="edgeStyle=orthogonalEdgeStyle;rounded=0;orthogonalLoop=1;jettySize=auto;html=1;exitX=1;exitY=0.5;exitDx=0;exitDy=0;" edge="1" parent="WIyWlLk6GJQsqaUBKTNV-1" source="-9E9C-kP7qHkTaOwC15O-7" target="-9E9C-kP7qHkTaOwC15O-9">
          <mxGeometry relative="1" as="geometry" />
        </mxCell>
        <mxCell id="-9E9C-kP7qHkTaOwC15O-7" value="adm.extend_" style="rounded=1;whiteSpace=wrap;html=1;" vertex="1" parent="WIyWlLk6GJQsqaUBKTNV-1">
          <mxGeometry x="270" y="560" width="120" height="60" as="geometry" />
        </mxCell>
        <mxCell id="-9E9C-kP7qHkTaOwC15O-12" style="edgeStyle=orthogonalEdgeStyle;rounded=0;orthogonalLoop=1;jettySize=auto;html=1;exitX=0.5;exitY=0;exitDx=0;exitDy=0;" edge="1" parent="WIyWlLk6GJQsqaUBKTNV-1" source="-9E9C-kP7qHkTaOwC15O-9" target="-9E9C-kP7qHkTaOwC15O-11">
          <mxGeometry relative="1" as="geometry" />
        </mxCell>
        <mxCell id="-9E9C-kP7qHkTaOwC15O-9" value="observableanotation.extend_" style="rounded=1;whiteSpace=wrap;html=1;" vertex="1" parent="WIyWlLk6GJQsqaUBKTNV-1">
          <mxGeometry x="540" y="560" width="190" height="60" as="geometry" />
        </mxCell>
        <mxCell id="-9E9C-kP7qHkTaOwC15O-11" value="adm.target_.defineProperty&lt;br&gt;adm.values_.set(key, new ObservableValue())" style="rounded=1;whiteSpace=wrap;html=1;" vertex="1" parent="WIyWlLk6GJQsqaUBKTNV-1">
          <mxGeometry x="540" y="440" width="190" height="60" as="geometry" />
        </mxCell>
      </root>
    </mxGraphModel>
  </diagram>
</mxfile>
